<mxfile host="Electron" modified="2023-04-22T13:56:55.941Z" agent="Mozilla/5.0 (X11; Linux x86_64) AppleWebKit/537.36 (KHTML, like Gecko) draw.io/21.1.2 Chrome/106.0.5249.199 Electron/21.4.3 Safari/537.36" etag="rDLB32kjOKzYpd9PgEjU" version="21.1.2" type="device">
  <diagram name="Page-1" id="0xaKvcrYNr95pNH14Osg">
    <mxGraphModel dx="2284" dy="1005" grid="1" gridSize="10" guides="1" tooltips="1" connect="1" arrows="1" fold="1" page="1" pageScale="1" pageWidth="850" pageHeight="1100" math="0" shadow="0">
      <root>
        <mxCell id="0" />
        <mxCell id="1" parent="0" />
        <mxCell id="Im9fZA_TLzj1qI4OMQGq-4" value="" style="edgeStyle=orthogonalEdgeStyle;rounded=0;orthogonalLoop=1;jettySize=auto;html=1;" edge="1" parent="1" source="Im9fZA_TLzj1qI4OMQGq-2" target="Im9fZA_TLzj1qI4OMQGq-3">
          <mxGeometry relative="1" as="geometry" />
        </mxCell>
        <mxCell id="Im9fZA_TLzj1qI4OMQGq-2" value="Source code" style="ellipse;whiteSpace=wrap;html=1;" vertex="1" parent="1">
          <mxGeometry x="-280" y="340" width="140" height="80" as="geometry" />
        </mxCell>
        <mxCell id="Im9fZA_TLzj1qI4OMQGq-6" value="" style="edgeStyle=orthogonalEdgeStyle;rounded=0;orthogonalLoop=1;jettySize=auto;html=1;" edge="1" parent="1" source="Im9fZA_TLzj1qI4OMQGq-3" target="Im9fZA_TLzj1qI4OMQGq-5">
          <mxGeometry relative="1" as="geometry" />
        </mxCell>
        <mxCell id="Im9fZA_TLzj1qI4OMQGq-3" value="Document index" style="ellipse;whiteSpace=wrap;html=1;" vertex="1" parent="1">
          <mxGeometry x="-20" y="340" width="140" height="80" as="geometry" />
        </mxCell>
        <mxCell id="Im9fZA_TLzj1qI4OMQGq-8" value="" style="edgeStyle=orthogonalEdgeStyle;rounded=0;orthogonalLoop=1;jettySize=auto;html=1;" edge="1" parent="1" source="Im9fZA_TLzj1qI4OMQGq-5" target="Im9fZA_TLzj1qI4OMQGq-7">
          <mxGeometry relative="1" as="geometry" />
        </mxCell>
        <mxCell id="Im9fZA_TLzj1qI4OMQGq-5" value="Fingerprint" style="ellipse;whiteSpace=wrap;html=1;fillColor=#dae8fc;strokeColor=#6c8ebf;" vertex="1" parent="1">
          <mxGeometry x="230" y="340" width="140" height="80" as="geometry" />
        </mxCell>
        <mxCell id="Im9fZA_TLzj1qI4OMQGq-10" value="" style="edgeStyle=orthogonalEdgeStyle;rounded=0;orthogonalLoop=1;jettySize=auto;html=1;" edge="1" parent="1" source="Im9fZA_TLzj1qI4OMQGq-7" target="Im9fZA_TLzj1qI4OMQGq-9">
          <mxGeometry relative="1" as="geometry" />
        </mxCell>
        <mxCell id="Im9fZA_TLzj1qI4OMQGq-7" value="Suffix array" style="ellipse;whiteSpace=wrap;html=1;" vertex="1" parent="1">
          <mxGeometry x="230" y="500" width="140" height="80" as="geometry" />
        </mxCell>
        <mxCell id="Im9fZA_TLzj1qI4OMQGq-12" value="" style="edgeStyle=orthogonalEdgeStyle;rounded=0;orthogonalLoop=1;jettySize=auto;html=1;" edge="1" parent="1" source="Im9fZA_TLzj1qI4OMQGq-9" target="Im9fZA_TLzj1qI4OMQGq-11">
          <mxGeometry relative="1" as="geometry" />
        </mxCell>
        <mxCell id="Im9fZA_TLzj1qI4OMQGq-9" value="Clone extractor" style="ellipse;whiteSpace=wrap;html=1;" vertex="1" parent="1">
          <mxGeometry x="60" y="500" width="140" height="80" as="geometry" />
        </mxCell>
        <mxCell id="Im9fZA_TLzj1qI4OMQGq-18" value="" style="edgeStyle=orthogonalEdgeStyle;rounded=0;orthogonalLoop=1;jettySize=auto;html=1;" edge="1" parent="1" source="Im9fZA_TLzj1qI4OMQGq-11" target="Im9fZA_TLzj1qI4OMQGq-17">
          <mxGeometry relative="1" as="geometry" />
        </mxCell>
        <mxCell id="Im9fZA_TLzj1qI4OMQGq-11" value="Source-map" style="ellipse;whiteSpace=wrap;html=1;" vertex="1" parent="1">
          <mxGeometry x="-110" y="500" width="140" height="80" as="geometry" />
        </mxCell>
        <mxCell id="Im9fZA_TLzj1qI4OMQGq-17" value="Code clones" style="ellipse;whiteSpace=wrap;html=1;" vertex="1" parent="1">
          <mxGeometry x="-280" y="500" width="140" height="80" as="geometry" />
        </mxCell>
      </root>
    </mxGraphModel>
  </diagram>
</mxfile>
